<?xml version="1.0" standalone="no"?>
<!DOCTYPE svg PUBLIC "-//W3C//DTD SVG 1.1//EN" "http://www.w3.org/Graphics/SVG/1.1/DTD/svg11.dtd" >
<svg>
<metadata>
Created by FontForge 20090622 at Sat Oct 12 09:51:49 2019
 By deploy user
 1993-2002 PARACHUTE TYPE &#38; IMAGE CORPORATION. All rights reserved. Designed by Panos Vassiliou. {www.parachute.gr}
</metadata>
<defs>
<font id="PFCatalog-Regular" horiz-adv-x="584" >
  <font-face 
    font-family="PF Catalog"
    font-weight="400"
    font-stretch="normal"
    units-per-em="1000"
    panose-1="2 0 5 3 5 0 0 2 0 4"
    ascent="755"
    descent="-245"
    x-height="513"
    cap-height="698"
    bbox="-201 -250 1287 923"
    underline-thickness="60"
    underline-position="-140"
    unicode-range="U+0020-U+E002"
  />
<missing-glyph horiz-adv-x="1000" 
 />
    <glyph glyph-name=".notdef" horiz-adv-x="1000" 
 />
    <glyph glyph-name=".null" horiz-adv-x="0" 
 />
    <glyph glyph-name="nonmarkingreturn" horiz-adv-x="333" 
 />
    <glyph glyph-name="space" unicode=" " horiz-adv-x="278" 
 />
    <glyph glyph-name="exclam" unicode="!" horiz-adv-x="389" 
d="M254 698l-17 -511h-85l-16 511h118zM257 61q0 -25 -17.5 -43t-43.5 -18t-44 18t-18 43q0 26 18 44t44 18t43.5 -18t17.5 -44z" />
    <glyph glyph-name="quotedbl" unicode="&#x22;" horiz-adv-x="519" 
d="M385 464h-93v234h93v-234zM226 464h-93v234h93v-234z" />
    <glyph glyph-name="numbersign" unicode="#" horiz-adv-x="556" 
d="M523 419h-98l-20 -140h89v-67h-98l-30 -212h-75l31 212h-116l-31 -212h-75l31 212h-98v67h106l20 140h-98v67h107l30 212h75l-30 -212h116l30 212h75l-30 -212h89v-67zM350 419h-116l-19 -140h116z" />
    <glyph glyph-name="dollar" unicode="$" horiz-adv-x="556" 
d="M492 192q0 -87 -51 -136.5t-134 -62.5v-83h-49v79q-3 -1 -11 -1q-90 0 -192 35l33 90q67 -40 156 -40h6q5 0 8 1v237l-54 26t-47.5 28t-46 38t-27 46.5t-12.5 62.5q0 84 51.5 133t135.5 62v70h49v-67q84 0 154 -27l-17 -86q-55 28 -133 28q-2 0 -2 -3t-2 -3v-219
q27 -12 38 -17.5t35.5 -19t36 -23.5l29 -26.5t25.5 -33t14.5 -39.5t6.5 -49zM258 424v194q-79 -24 -79 -101q0 -53 79 -93zM307 286v-202q78 26 78 105q0 54 -78 97z" />
    <glyph glyph-name="percent" unicode="%" horiz-adv-x="1000" 
d="M895 176q0 -86 -41 -136t-121 -50t-121.5 49.5t-41.5 136.5q0 86 41.5 136t121.5 50t121 -49.5t41 -136.5zM747 720l-422 -742h-71l423 742h70zM431 522q0 -86 -41 -136t-121 -50t-122 49.5t-42 136.5q0 86 41.5 136t121.5 50t121.5 -49.5t41.5 -136.5zM812 176
q0 48 -18 83.5t-61 35.5t-61.5 -35t-18.5 -84q0 -48 18.5 -83.5t61.5 -35.5t61 35t18 84zM347 522q0 49 -17.5 84t-60.5 35t-61.5 -35t-18.5 -84q0 -48 18 -83.5t61 -35.5t61 35t18 84z" />
    <glyph glyph-name="ampersand" unicode="&#x26;" horiz-adv-x="695" 
d="M686 1h-130l-61 70q-77 -83 -201 -83q-102 0 -170.5 52t-68.5 147q0 71 38.5 118.5t117.5 78.5q-34 35 -48 51.5t-30 50t-16 68.5q0 73 61 114.5t139 41.5q75 0 129 -38t54 -113q0 -36 -11.5 -65t-36 -51.5t-46 -36.5t-58.5 -34l156 -173q50 66 52 182h91
q-5 -149 -84 -245zM404 548v-1q0 43 -24 65t-64 22t-69 -23t-29 -65q0 -10 2 -19t7.5 -20l8.5 -17t13 -18l13 -15.5t15.5 -17t13.5 -14.5q31 16 52 29.5t41 39t20 54.5zM444 128l-179 199q-47 -20 -78 -55t-31 -81q0 -56 41 -90t99 -34q92 0 148 61z" />
    <glyph glyph-name="quotesingle" unicode="'" horiz-adv-x="278" 
d="M186 464h-93v234h93v-234z" />
    <glyph glyph-name="parenleft" unicode="(" horiz-adv-x="306" 
d="M291 -140h-85q-79 114 -122.5 222t-43.5 226q0 122 42.5 226t123.5 222h85q-73 -126 -110.5 -228t-37.5 -220q0 -114 39 -220.5t109 -227.5z" />
    <glyph glyph-name="parenright" unicode=")" horiz-adv-x="306" 
d="M265 308q0 -117 -43.5 -225t-122.5 -223h-84q70 121 109 227.5t39 220.5q0 117 -38 219.5t-110 228.5h84q80 -116 123 -221.5t43 -226.5z" />
    <glyph glyph-name="asterisk" unicode="*" horiz-adv-x="556" 
d="M474 525l-143 -37l97 -113l-71 -52l-79 128l-80 -128l-70 52l96 113l-142 36l25 82l140 -57l-12 149h29h58l-13 -149l139 57z" />
    <glyph glyph-name="plus" unicode="+" horiz-adv-x="600" 
d="M554 210h-211v-210h-86v210h-211v86h210v211h87v-210h211v-87z" />
    <glyph glyph-name="comma" unicode="," horiz-adv-x="278" 
d="M214 112l-85 -234h-91l61 234h115z" />
    <glyph glyph-name="hyphen" unicode="-" horiz-adv-x="333" 
d="M295 225l-257 -1v90h257v-89z" />
    <glyph glyph-name="period" unicode="." horiz-adv-x="275" 
d="M201 59q0 -26 -17.5 -44t-43.5 -18t-44 18t-18 44t18 43.5t44 17.5t43.5 -17.5t17.5 -43.5z" />
    <glyph glyph-name="slash" unicode="/" horiz-adv-x="334" 
d="M339 710l-257 -722h-87l257 722h87z" />
    <glyph glyph-name="zero" unicode="0" horiz-adv-x="556" 
d="M514 348q0 -52 -5 -97t-20.5 -95t-40.5 -85t-68.5 -58t-101.5 -23q-236 0 -236 358q0 69 11 128.5t36 114t73 86t115 31.5q56 0 99 -22t68.5 -57t42 -84t22 -96.5t5.5 -100.5zM409 348h1q0 32 -1.5 57t-5.5 60t-13 61t-22.5 50t-36.5 37t-53 13t-53 -13t-36.5 -37
t-22.5 -50t-13 -61t-5.5 -60t-1.5 -57t1 -56.5t5 -60t13 -60.5t22.5 -49.5t36.5 -37t53 -12.5t53 13t37 37t23 49.5t13 60.5t5 60t1 56z" />
    <glyph glyph-name="one" unicode="1" horiz-adv-x="556" 
d="M375 0h-104v580l-116 -98l-54 68l181 148h93v-698z" />
    <glyph glyph-name="two" unicode="2" horiz-adv-x="556" 
d="M487 0h-442v88q11 9 72 72.5l84 88.5q160 170 160 263q0 51 -34.5 81t-84.5 30q-78 0 -164 -54l-16 87q102 52 195 52q97 0 154 -49t57 -145q0 -70 -46 -143.5t-125 -160.5l-120 -125h310v-85z" />
    <glyph glyph-name="three" unicode="3" horiz-adv-x="556" 
d="M490 195q0 -102 -76.5 -153.5t-183.5 -51.5q-103 0 -181 27l11 92q78 -34 162 -34q62 0 112.5 31.5t50.5 91.5q0 121 -177 121h-67v85h51q187 0 187 116q0 52 -41 77.5t-99 25.5q-79 0 -157 -38l-11 87q91 36 186 36q41 0 78.5 -9t72 -28t55 -54.5t20.5 -84.5
q0 -125 -138 -167v-2q67 -6 106 -53t39 -115z" />
    <glyph glyph-name="four" unicode="4" horiz-adv-x="556" 
d="M534 153h-96v-153h-101v153h-318v90l288 455h131v-463h96v-82zM336 235l1 356h-2l-221 -356h222z" />
    <glyph glyph-name="five" unicode="5" horiz-adv-x="556" 
d="M498 225q0 -107 -70.5 -171t-192.5 -64q-91 0 -164 26l9 95q74 -36 146 -36q69 0 118.5 36t49.5 105q0 71 -45 105.5t-123 34.5q-72 0 -138 -21l7 363h379v-82h-279l-4 -187q33 12 85 12q95 0 158.5 -53.5t63.5 -162.5z" />
    <glyph glyph-name="six" unicode="6" horiz-adv-x="556" 
d="M510 231q0 -110 -59.5 -175.5t-170.5 -65.5q-231 0 -231 328q0 63 9 117.5t30.5 105.5t55.5 87.5t86.5 58t119.5 21.5q64 0 133 -21l-15 -90q-55 25 -118 25q-55 1 -95.5 -20.5t-62.5 -59t-32.5 -80t-11.5 -92.5l2 -2q50 79 149 79q91 0 151 -54.5t60 -161.5zM405 217h1
q0 67 -31 107.5t-91 40.5q-61 0 -94 -40.5t-33 -103.5q0 -62 32 -105.5t92 -43.5t92 41.5t32 103.5z" />
    <glyph glyph-name="seven" unicode="7" horiz-adv-x="556" 
d="M492 610l-259 -610h-114l269 613h-334v85h438v-88z" />
    <glyph glyph-name="eight" unicode="8" horiz-adv-x="556" 
d="M516 185q0 -98 -67 -146.5t-169 -48.5q-101 0 -170.5 49.5t-69.5 144.5q0 65 37 107t108 72l-1 1q-57 26 -92 69t-35 101q0 85 64 129.5t152 44.5q95 0 158.5 -42t63.5 -124q0 -53 -36 -99t-93 -74v-1q74 -30 112 -72.5t38 -110.5zM393 527h1q0 45 -33 72t-80 27
q-50 0 -86 -25.5t-36 -71.5q0 -20 9 -38.5t19 -29.5t32 -24.5t31 -18l34 -16.5q109 51 109 125zM411 185q0 27 -12 49t-36.5 39.5t-42.5 26.5t-49 22q-32 -15 -48.5 -24t-37.5 -25.5t-30.5 -38t-9.5 -49.5q0 -49 40.5 -81t93.5 -32q55 0 93.5 29.5t38.5 83.5z" />
    <glyph glyph-name="nine" unicode="9" horiz-adv-x="556" 
d="M507 380q0 -63 -9 -117.5t-30.5 -105.5t-55.5 -87.5t-86.5 -58t-119.5 -21.5q-61 0 -134 22l16 89q55 -25 119 -25q54 -1 94.5 20.5t62.5 59t33 80.5t12 92l-2 2q-50 -79 -150 -79q-91 0 -151 54.5t-60 161.5q0 110 60 175.5t170 65.5q231 0 231 -328zM399 477
q0 62 -31 105.5t-92 43.5q-60 0 -92.5 -41.5t-32.5 -103.5q0 -66 31 -107t90 -41q61 0 94 40.5t33 103.5z" />
    <glyph glyph-name="colon" unicode=":" horiz-adv-x="278" 
d="M201 453q0 -26 -17.5 -43.5t-43.5 -17.5t-44 17.5t-18 43.5t18 44t44 18t43.5 -18t17.5 -44zM201 58q0 -26 -17.5 -43.5t-43.5 -17.5t-44 17.5t-18 43.5t18 44t44 18t43.5 -18t17.5 -44z" />
    <glyph glyph-name="semicolon" unicode=";" horiz-adv-x="278" 
d="M216 453q0 -26 -18 -43.5t-44 -17.5q-25 0 -43 17.5t-18 43.5t18 44t43 18q26 0 44 -18t18 -44zM214 112l-85 -234h-91l61 234h115z" />
    <glyph glyph-name="semicolon" unicode="&#x37e;" horiz-adv-x="278" 
d="M216 453q0 -26 -18 -43.5t-44 -17.5q-25 0 -43 17.5t-18 43.5t18 44t43 18q26 0 44 -18t18 -44zM214 112l-85 -234h-91l61 234h115z" />
    <glyph glyph-name="less" unicode="&#x3c;" horiz-adv-x="600" 
d="M554 -8l-508 224v74l508 224v-84l-402 -177l402 -177v-84z" />
    <glyph glyph-name="equal" unicode="=" horiz-adv-x="600" 
d="M554 315l-508 -1v87h508v-86zM554 105h-508v87h508v-87z" />
    <glyph glyph-name="greater" unicode="&#x3e;" horiz-adv-x="600" 
d="M554 216l-508 -224v84l403 177l-403 177v84l508 -224v-74z" />
    <glyph glyph-name="question" unicode="?" horiz-adv-x="500" 
d="M450 531q0 -41 -17.5 -77.5t-43 -63.5l-50.5 -54t-42.5 -61.5t-17.5 -73.5v-8q0 -6 1 -7h-94q0 41 24.5 88t54 83t54 82t24.5 84q0 50 -35 77.5t-86 27.5q-63 0 -147 -34l-12 86q105 30 177 30q89 0 149.5 -45t60.5 -134zM292 60q0 -25 -17.5 -43t-43.5 -18t-44 18
t-18 43q0 26 18 44t44 18t43.5 -18t17.5 -44z" />
    <glyph glyph-name="at" unicode="@" horiz-adv-x="723" 
d="M695 420q0 -117 -49.5 -187t-120.5 -70q-21 0 -40.5 14t-27.5 37q-21 -28 -55.5 -42.5t-69.5 -14.5q-71 0 -106.5 53.5t-35.5 135.5t51.5 150.5t134.5 68.5q66 0 99 -47l5 39h55q-8 -53 -24 -214q-7 -78 -2 -101t25 -23q38 0 69 53.5t31 138.5q0 120 -61 191.5t-169 71.5
q-122 0 -206.5 -97t-84.5 -255q0 -126 68.5 -203t173.5 -77q86 0 156 44l20 -53q-82 -49 -180 -49q-127 0 -213 92t-86 242q0 111 43 204.5t126 151t190 57.5q128 0 206 -88t78 -223zM461 401q2 21 -1 30q-5 34 -29 57t-59 23q-46 0 -82 -43t-42 -111q-6 -63 17.5 -104
t75.5 -41q71 0 104 77q6 13 12 57q1 4 4 55z" />
    <glyph glyph-name="A" unicode="A" horiz-adv-x="695" 
d="M684 0h-114l-67 174h-318l-68 -174h-106l279 698h118zM471 259l-125 336l-2 -1l-126 -335h253z" />
    <glyph glyph-name="B" unicode="B" 
d="M530 201q0 -47 -16 -83.5t-41 -58t-60 -35.5t-69 -19t-72 -5h-192v698h205q43 0 79 -7.5t70.5 -25.5t54.5 -54.5t20 -87.5q0 -65 -35 -105.5t-99 -52.5v-2q70 -9 112.5 -52.5t42.5 -109.5zM260 613h-74v-209h67q151 0 151 108q0 101 -144 101zM425 201q0 31 -10.5 54
t-26.5 36t-40.5 20.5t-47 9.5t-51.5 2h-64v-238h69q171 0 171 116z" />
    <glyph glyph-name="C" unicode="C" horiz-adv-x="639" 
d="M420 710h-1q107 0 165 -29l-12 -90q-62 34 -154 34q-120 0 -189.5 -78t-69.5 -199q0 -122 69.5 -198.5t190.5 -76.5q102 0 155 30l9 -89q-63 -26 -163 -26q-170 0 -269 93.5t-99 261.5q0 169 99 268t269 99z" />
    <glyph glyph-name="D" unicode="D" horiz-adv-x="695" 
d="M263 698h-1q179 0 278 -86.5t99 -261.5q0 -96 -31 -166t-87.5 -109t-126 -57t-157.5 -18h-157v698h183zM275 613h-90v-528h67q124 0 201.5 67.5t77.5 198.5q0 130 -73 196t-183 66z" />
    <glyph glyph-name="E" unicode="E" horiz-adv-x="528" 
d="M468 0h-385v698h378v-85h-273v-210h254v-85h-254v-233h280v-85z" />
    <glyph glyph-name="F" unicode="F" horiz-adv-x="472" 
d="M439 613h-256v-210h244v-85h-243v-318h-105v698h360v-85z" />
    <glyph glyph-name="G" unicode="G" horiz-adv-x="722" 
d="M645 28q-108 -40 -222 -40q-170 0 -269 93.5t-99 261.5q0 169 99 268t269 99q119 0 200 -32l-12 -90q-75 37 -180 37q-126 0 -197 -77.5t-71 -199.5q0 -123 68.5 -199t191.5 -76q82 0 120 17v214h-155v85h257v-361z" />
    <glyph glyph-name="H" unicode="H" horiz-adv-x="695" 
d="M610 0h-104v318h-317v-318h-105v698h105v-296h316v296h105v-698z" />
    <glyph glyph-name="I" unicode="I" horiz-adv-x="250" 
d="M178 0h-105v698h105v-698z" />
    <glyph glyph-name="J" unicode="J" horiz-adv-x="361" 
d="M285 173q0 -76 -43.5 -130.5t-133.5 -54.5q-56 0 -95 14l5 90q27 -13 66 -13q96 0 96 126v493h105v-525z" />
    <glyph glyph-name="K" unicode="K" horiz-adv-x="639" 
d="M627 0h-139l-294 336l-1 1v-337h-105v698h104v-307l283 307h132l-313 -329z" />
    <glyph glyph-name="L" unicode="L" horiz-adv-x="472" 
d="M461 0h-381v698h105v-613h276v-85z" />
    <glyph glyph-name="M" unicode="M" horiz-adv-x="917" 
d="M833 0h-101v603h-2l-221 -603h-97l-225 602h-2v-602h-102v698h166l210 -572l2 2l210 570h162v-698z" />
    <glyph glyph-name="N" unicode="N" horiz-adv-x="695" 
d="M619 0h-132l-308 562h-2v-562h-102v698h130l310 -568h2v568h102v-698z" />
    <glyph glyph-name="O" unicode="O" horiz-adv-x="751" 
d="M700 350q0 -163 -85 -262.5t-239 -99.5q-155 0 -240 99t-85 263q0 158 84 259t241 101q155 0 239.5 -101.5t84.5 -258.5zM376 625q-72 0 -123 -41.5t-72.5 -101.5t-21.5 -132q0 -53 12.5 -101t38 -88.5t68 -64t98.5 -23.5q107 0 162 81.5t55 195.5q0 112 -55.5 193.5
t-161.5 81.5z" />
    <glyph glyph-name="P" unicode="P" horiz-adv-x="528" 
d="M506 494q0 -106 -68 -158t-178 -52h-78v-284h-105v698h175q114 0 184 -49.5t70 -154.5zM398 489q0 62 -36.5 93t-98.5 31h-81v-245h48q77 0 122.5 25.5t45.5 95.5z" />
    <glyph glyph-name="Q" unicode="Q" horiz-adv-x="751" 
d="M700 350q-2 -229 -152 -319q81 -45 123 -139l-89 -54q-23 67 -74.5 108.5t-126.5 41.5h-5q-155 0 -240 99t-85 263q0 158 84 259t241 101q155 0 239.5 -101.5t84.5 -258.5zM593 350q0 112 -55.5 193.5t-161.5 81.5q-72 0 -123 -41.5t-72.5 -101.5t-21.5 -132
q0 -53 12.5 -101t38 -88.5t68 -64t98.5 -23.5q107 0 162 81.5t55 195.5z" />
    <glyph glyph-name="R" unicode="R" 
d="M559 0h-116l-92 227q-21 52 -44 67.5t-73 15.5h-51v-310h-105v698h166q58 0 100.5 -7t83 -25.5t62 -57t21.5 -95.5q0 -64 -42 -108.5t-108 -52.5v-2q32 -3 50 -23t32 -55zM403 507h1q0 29 -9.5 49.5t-23.5 31t-37.5 16.5t-42.5 7.5t-49 1.5h-59v-219h59q161 0 161 113z
" />
    <glyph glyph-name="S" unicode="S" horiz-adv-x="528" 
d="M479 192q0 -103 -71 -153.5t-175 -50.5q-88 0 -174 31l15 96q70 -42 156 -42q58 0 99.5 29.5t41.5 86.5q0 28 -17.5 50t-45 38t-61 31t-66.5 33t-60.5 40t-45 55.5t-17.5 75.5q0 96 66.5 147t165.5 51q91 0 157 -26l-16 -87q-57 28 -135 28q-54 0 -92.5 -25.5
t-38.5 -82.5q0 -36 32.5 -62.5t78.5 -46.5t92 -44t78.5 -67.5t32.5 -104.5z" />
    <glyph glyph-name="T" unicode="T" horiz-adv-x="528" 
d="M520 613h-203v-613h-105v613h-203v85h511v-85z" />
    <glyph glyph-name="U" unicode="U" horiz-adv-x="695" 
d="M617 248q0 -71 -22 -123t-60.5 -81t-85 -42.5t-101.5 -13.5t-101.5 13.5t-85.5 42.5t-61 81t-22 123v450h105v-428q0 -91 41 -144t123 -53q83 0 124 52.5t41 143.5v429h105v-450z" />
    <glyph glyph-name="V" unicode="V" horiz-adv-x="639" 
d="M631 698l-250 -698h-123l-250 698h111l202 -589l2 2l204 587h104z" />
    <glyph glyph-name="W" unicode="W" horiz-adv-x="972" 
d="M963 698l-192 -698h-131l-152 589h-2l-152 -589h-132l-193 698h109l151 -589h2l149 589h137l149 -589h2l153 589h102z" />
    <glyph glyph-name="X" unicode="X" horiz-adv-x="639" 
d="M631 0h-125l-187 295l-192 -295h-119l245 365l-221 333h121l171 -266l174 266h114l-223 -333z" />
    <glyph glyph-name="Y" unicode="Y" horiz-adv-x="639" 
d="M628 698l-255 -412v-286h-104v286l-258 412h122l189 -317l194 317h112z" />
    <glyph glyph-name="Z" unicode="Z" horiz-adv-x="528" 
d="M495 0h-467v87l347 526h-336v85h447v-87l-347 -526h356v-85z" />
    <glyph glyph-name="bracketleft" unicode="[" horiz-adv-x="306" 
d="M264 -140h-194v896h194v-73h-98v-750h98v-73z" />
    <glyph glyph-name="backslash" unicode="\" horiz-adv-x="334" 
d="M339 -12h-87l-258 722h87z" />
    <glyph glyph-name="bracketright" unicode="]" horiz-adv-x="306" 
d="M235 -140h-193v73h98v750h-98v73h193v-896z" />
    <glyph glyph-name="asciicircum" unicode="^" horiz-adv-x="600" 
d="M542 289h-87l-155 322l-154 -322h-88l202 409h79z" />
    <glyph glyph-name="underscore" unicode="_" horiz-adv-x="500" 
d="M0 -140h500v60h-500v-60z" />
    <glyph glyph-name="grave" unicode="`" horiz-adv-x="250" 
d="M209 579l-65 -1l-132 141h108z" />
    <glyph glyph-name="a" unicode="a" horiz-adv-x="528" 
d="M466 0h-88q-4 14 -4 44v18q0 15 1 18h-2q-21 -42 -68 -67t-96 -25q-87 0 -129 43.5t-42 104.5q0 110 101 153q22 9 41 14.5t42.5 7.5t32 3t38 0.5t32.5 -0.5h44q0 98 -72 124q-75 27 -193 -33l-24 74q85 46 178 48q99 2 151 -48t52 -158v-210q0 -72 5 -111zM368 232l1 15
h-53q-180 0 -180 -105q0 -40 26.5 -59t69.5 -19q68 0 107 49q6 8 11 18.5t7.5 19t4.5 22l3 20t2 21t1 18.5z" />
    <glyph glyph-name="b" unicode="b" 
d="M541 257q0 -117 -54 -193t-159 -76q-108 0 -158 84h-2v-28l-5 -44h-99q7 28 7 99v651h98v-314h2q58 89 157 89q110 0 161.5 -73.5t51.5 -194.5zM436 257h1q0 47 -10.5 87t-41.5 71t-79 31q-47 0 -79.5 -31t-44.5 -71.5t-12 -86.5q0 -74 33 -132t101 -58q49 0 80 31
t41.5 71t10.5 88z" />
    <glyph glyph-name="c" unicode="c" horiz-adv-x="444" 
d="M289 525q79 0 138 -23l-20 -79q-51 23 -100 23q-76 0 -120 -52t-44 -136q0 -83 43 -137t119 -54q48 0 107 23l18 -82q-57 -20 -142 -20q-120 0 -185 75.5t-65 193.5q0 117 68 192.5t183 75.5z" />
    <glyph glyph-name="d" unicode="d" 
d="M519 0h-98l-5 46v26h-2q-50 -84 -158 -84q-105 0 -159 76t-54 193q0 120 51.5 194t161.5 74q97 0 156 -89h2v314h99v-650q0 -58 6 -100zM278 446q-48 0 -79 -31t-41.5 -71t-10.5 -87q0 -48 10.5 -88t41.5 -71t80 -31q36 0 63.5 17.5t42.5 46.5t22 61t7 65q0 73 -34 131
t-102 58z" />
    <glyph glyph-name="e" unicode="e" horiz-adv-x="528" 
d="M490 227h-353q2 -73 44 -118t113 -45q81 0 149 41l20 -78q-76 -39 -174 -39q-124 0 -187.5 71.5t-63.5 195.5q0 118 61 194t166 76q113 0 167.5 -72t56.5 -192q0 -3 0.5 -17t0.5 -17zM391 300v-1q-3 65 -31.5 107.5t-87.5 42.5q-60 0 -96.5 -44t-38.5 -105h254z" />
    <glyph glyph-name="f" unicode="f" horiz-adv-x="361" 
d="M397 737l-24 -77q-43 13 -57 13h-12q-85 0 -85 -105v-56h131v-76h-131v-436h-98v436h-72v76h72v72q0 84 53 128.5t127 44.5q39 0 96 -20z" />
    <glyph glyph-name="g" unicode="g" 
d="M518 512q-5 -35 -5 -87v-379q0 -56 -13 -101.5t-41 -83.5t-79.5 -59t-122.5 -21q-90 0 -178 36l25 81q72 -38 145 -38q45 0 77 13.5t49 33t26.5 53t11.5 61.5t2 70h-2q-47 -91 -158 -91q-56 0 -99 22t-67 60t-35.5 82t-11.5 93q0 115 53.5 191.5t160.5 76.5
q54 0 91 -16.5t68 -60.5h2q0 16 1 27q0 27 4 37h96zM414 259q0 85 -31.5 136t-99.5 51q-50 0 -82 -30t-43 -69.5t-11 -88.5q0 -72 33 -125.5t97 -53.5q69 0 103 52.5t34 127.5z" />
    <glyph glyph-name="h" unicode="h" 
d="M510 0h-99v289q0 34 -3 57.5t-13 48.5t-32 38t-56 13q-70 0 -102 -56.5t-32 -126.5v-263h-99v750h98v-316h2q24 41 66 66t95 25q175 0 175 -210v-315z" />
    <glyph glyph-name="i" unicode="i" horiz-adv-x="250" 
d="M183 677q0 -24 -17 -41t-41 -17t-41 17t-17 41t17 40.5t41 16.5t41 -16.5t17 -40.5zM174 0h-99v513h99v-513z" />
    <glyph glyph-name="j" unicode="j" horiz-adv-x="250" 
d="M183 677q0 -24 -17 -41t-41 -17t-41 17t-17 41t17 40.5t41 16.5t41 -16.5t17 -40.5zM175 27q0 -89 -20 -138.5t-59.5 -72.5t-117.5 -38l-7 85q50 12 71.5 33t28 59t6.5 127v431h98v-486z" />
    <glyph glyph-name="k" unicode="k" horiz-adv-x="528" 
d="M516 0h-129l-211 255l-2 1v-256h-99v750h99v-445l2 1l193 207h120l-221 -228z" />
    <glyph glyph-name="l" unicode="l" horiz-adv-x="250" 
d="M174 0h-99v750h99v-750z" />
    <glyph glyph-name="m" unicode="m" horiz-adv-x="861" 
d="M791 0h-99v323q0 123 -92 123q-57 0 -88 -51.5t-31 -128.5v-266h-98v323q0 123 -93 123q-57 0 -87.5 -51.5t-30.5 -128.5v-266h-99v395q0 75 -5 118h90l6 -46v-33h3q58 91 155 91q112 0 144 -100l1 1q20 45 63.5 72t97.5 27q83 0 123 -50.5t40 -136.5v-338z" />
    <glyph glyph-name="n" unicode="n" 
d="M510 0h-99v292q0 70 -22 112t-82 42q-38 0 -65.5 -17t-42 -44.5t-20.5 -56.5t-6 -61v-267h-99v395q0 75 -5 118h90l6 -47v-35h2q53 94 168 94q89 0 132 -54t43 -145v-326z" />
    <glyph glyph-name="o" unicode="o" 
d="M546 255q0 -114 -66.5 -190.5t-187.5 -76.5t-187.5 76.5t-66.5 189.5q0 119 68.5 195t184.5 76q117 0 186 -75.5t69 -194.5zM291 446h1q-71 0 -110.5 -53t-39.5 -130q0 -83 37 -139.5t112 -56.5t112.5 55.5t37.5 139.5q0 79 -39 131.5t-111 52.5z" />
    <glyph glyph-name="p" unicode="p" 
d="M541 255q0 -118 -53.5 -193t-159.5 -75q-56 0 -92.5 21.5t-63.5 67.5h-2v-286h-99v617q0 61 -6 105h95l5 -46v-32h2q65 90 161 90q110 0 161.5 -74.5t51.5 -194.5zM436 255h1q0 48 -10.5 88t-41.5 71t-80 31q-36 0 -63.5 -17.5t-42.5 -46.5t-22 -61t-7 -65
q0 -74 33.5 -131.5t101.5 -57.5q49 0 80 31t41 70.5t10 87.5z" />
    <glyph glyph-name="q" unicode="q" 
d="M518 512q-6 -44 -6 -105v-617h-98v286h-2q-53 -89 -157 -89q-106 0 -159.5 75t-53.5 193q0 120 51.5 194.5t161.5 74.5q100 0 161 -90h2v32l5 46h95zM413 255q0 74 -33 132t-101 58q-49 0 -80 -31t-41.5 -71t-10.5 -88t10 -87.5t41 -70.5t80 -31q68 0 101.5 57.5
t33.5 131.5z" />
    <glyph glyph-name="r" unicode="r" horiz-adv-x="361" 
d="M345 426q-24 10 -60 5q-111 -9 -111 -210v-221h-99v398v35q0 41 -5 79h89l5 -53v-54h2q16 60 67.5 95t111.5 22v-96z" />
    <glyph glyph-name="s" unicode="s" horiz-adv-x="417" 
d="M382 145q0 -79 -58.5 -118t-138.5 -39q-82 0 -157 26l21 81q60 -31 128 -31q40 0 70.5 20t30.5 57q0 30 -24.5 50t-60 33t-71 28t-60 46t-24.5 77q0 75 53 112.5t131 37.5q73 0 145 -24l-19 -74q-57 22 -113 22q-95 0 -95 -71q0 -24 25 -41t60.5 -30t71 -29.5t60.5 -50
t25 -82.5z" />
    <glyph glyph-name="t" unicode="t" horiz-adv-x="387" 
d="M367 7q-42 -14 -81 -14q-75 0 -122 41t-47 129v273h-94v76h93v113l99 33v-145h138v-76h-138v-258q0 -50 16 -73.5t52 -28.5q23 -4 64 9z" />
    <glyph glyph-name="u" unicode="u" 
d="M514 0h-93q-3 13 -3 55v26h-2q-62 -93 -167 -93q-89 0 -132 54t-43 145v326h98v-293q0 -153 104 -153q50 0 82 30t42.5 67.5t10.5 80.5v268h98v-395q0 -77 5 -118z" />
    <glyph glyph-name="v" unicode="v" horiz-adv-x="500" 
d="M490 513l-185 -513h-112l-183 513h107l134 -409h2l136 409h101z" />
    <glyph glyph-name="w" unicode="w" horiz-adv-x="834" 
d="M825 513l-163 -513h-117l-126 417h-2l-124 -417h-115l-169 513h105l124 -412h2l123 412h116l124 -412h2l124 412h96z" />
    <glyph glyph-name="x" unicode="x" horiz-adv-x="500" 
d="M492 0h-119l-125 206l-129 -206h-111l179 270l-161 243h118l111 -180l111 180h107l-156 -243z" />
    <glyph glyph-name="y" unicode="y" horiz-adv-x="500" 
d="M486 513l-121 -347q-3 -7 -22 -60t-24 -64q-48 -121 -108 -189.5t-157 -79.5l-23 73q68 13 104 47.5t62 97.5l-187 522h108l134 -401h1l132 401h101z" />
    <glyph glyph-name="z" unicode="z" horiz-adv-x="472" 
d="M438 0h-404v81l284 352h-273v80h389v-82l-282 -352h286v-79z" />
    <glyph glyph-name="braceleft" unicode="{" horiz-adv-x="306" 
d="M298 -140h-65q-52 0 -88.5 34t-36.5 94v170q0 56 -22 86t-58 30v67q35 0 57.5 30.5t22.5 83.5v173q0 61 36.5 94.5t88.5 33.5h65v-64h-47q-47 0 -47 -83v-169q0 -63 -31.5 -94.5t-67.5 -36.5v-2q15 -2 29.5 -9t31.5 -21t27 -41t10 -64v-164q0 -41 10 -62.5t37 -21.5h48
v-64z" />
    <glyph glyph-name="bar" unicode="|" horiz-adv-x="222" 
d="M155 -250h-87v1000h87v-1000z" />
    <glyph glyph-name="braceright" unicode="}" horiz-adv-x="306" 
d="M278 275q-36 0 -58 -31t-22 -87v-169q0 -61 -36 -94.5t-89 -33.5h-66v64h48q47 0 47 83v165q0 36 10 63.5t27 41.5t31.5 21t29.5 9v2q-35 5 -66.5 36.5t-31.5 95.5v167q0 84 -47 84h-48v64h66q53 0 88.5 -33.5t35.5 -94.5v-174q0 -53 22.5 -82.5t58.5 -29.5v-67z" />
    <glyph glyph-name="asciitilde" unicode="~" horiz-adv-x="600" 
d="M531 264q-26 -45 -54.5 -72.5t-65.5 -27.5q-12 0 -23 2t-25.5 8t-21 9t-24 12.5t-20.5 11.5q-3 1 -15 7.5l-15.5 8.5t-14 7t-16 7t-14 4.5t-15.5 3.5t-15 1q-16 0 -29 -6t-25 -19.5t-17 -21.5l-16 -26l-36 69q47 90 123 90q46 0 114 -37q9 -4 26.5 -14.5t27.5 -15.5
t24 -10t25 -5t21 4.5t21 17t15 17.5t16 25l13 19z" />
    <glyph glyph-name="nbspace" unicode="&#xa0;" horiz-adv-x="278" 
 />
    <glyph glyph-name="sterling" unicode="&#xa3;" horiz-adv-x="556" 
d="M507 689l-9 -87q-44 21 -99 21q-139 0 -139 -166v-55h157v-67h-157v-253h235v-82h-435v82h96v253h-84v67h84v66q0 104 59 172t170 68q74 0 122 -19z" />
    <glyph glyph-name="yen" unicode="&#xa5;" horiz-adv-x="556" 
d="M552 698l-184 -337h107v-64h-141l-5 -10v-62h146v-64h-146v-161h-101v161h-146v64h146v62l-6 9h-140v64h107l-185 338h109l167 -323l171 323h101z" />
    <glyph glyph-name="brokenbar" unicode="&#xa6;" 
d="M448 708q-4 -51 -30.5 -85.5t-59.5 -34.5q-19 0 -46 15.5t-28 15.5q-46 16 -58 16q-39 0 -46 -41h-46q4 43 29 74.5t63 31.5q25 0 71 -16q10 -4 29.5 -18.5t28.5 -14.5q19 0 31.5 18t15.5 39h46zM546 254v1q0 -114 -66.5 -190.5t-187.5 -76.5t-187.5 76.5t-66.5 189.5
q0 119 68.5 195t184.5 76q117 0 186 -76t69 -195zM291 446h1q-71 0 -110.5 -53t-39.5 -130q0 -83 37 -139.5t112 -56.5t112.5 55.5t37.5 139.5q0 79 -39 131.5t-111 52.5z" />
    <glyph glyph-name="section" unicode="&#xa7;" horiz-adv-x="556" 
d="M89 -99l9 92q67 -35 165 -35q48 0 83.5 23.5t35.5 67.5q0 29 -30.5 48.5t-74.5 34t-88 32t-74.5 53.5t-30.5 88q0 80 73 124q-69 38 -69 119q0 78 64 120t146 42q68 0 144 -19l-9 -91q-63 28 -122 28q-30 0 -56 -5t-49.5 -23t-23.5 -48q0 -33 31 -55t75 -36t88.5 -31.5
t75.5 -52t31 -85.5q0 -42 -17 -69t-54 -57q64 -41 64 -114q0 -46 -21 -81.5t-55 -55t-72.5 -29.5t-77.5 -10q-91 0 -161 25zM172 324q0 -28 23.5 -50.5t49.5 -33.5t64.5 -24t49.5 -18q13 15 18.5 23t11.5 22.5t6 29.5q0 37 -31.5 61t-87.5 43t-67 25q-37 -28 -37 -78z" />
    <glyph glyph-name="dieresis" unicode="&#xa8;" horiz-adv-x="250" 
d="M278 656q0 -24 -17 -41t-41 -17t-41 17t-17 41q0 23 17 40t41 17t41 -17t17 -40zM88 656q0 -24 -17 -41t-41 -17t-40.5 17t-16.5 41q0 23 16.5 40t40.5 17t41 -17t17 -40z" />
    <glyph glyph-name="copyright" unicode="&#xa9;" horiz-adv-x="800" 
d="M761 349q0 -149 -106 -255t-255 -106t-255 106t-106 255t106 255t255 106t255 -106t106 -255zM674 349h1q0 126 -78.5 210t-195.5 84q-118 0 -197 -83t-79 -211t78.5 -211t196.5 -83q117 0 195.5 83.5t78.5 210.5zM427 563q62 0 109 -20l-11 -71q-47 24 -99 24
q-68 0 -109 -42.5t-41 -108.5q0 -67 40 -108t111 -41q59 0 100 22l8 -71q-44 -19 -108 -19q-105 0 -168 57t-63 157q0 101 62.5 161t168.5 60z" />
    <glyph glyph-name="guillemotleft" unicode="&#xab;" horiz-adv-x="556" 
d="M491 64h-93l-129 205l129 205h93l-122 -205zM291 64h-92l-129 205l129 205h93l-122 -205z" />
    <glyph glyph-name="sfthyphen" unicode="&#xad;" horiz-adv-x="333" 
d="M38 224l257 1v89h-257v-90z" />
    <glyph glyph-name="registered" unicode="&#xae;" horiz-adv-x="800" 
d="M761 349q0 -149 -106 -255t-255 -106t-255 106t-106 255t106 255t255 106t255 -106t106 -255zM674 349h1q0 126 -78.5 210t-195.5 84q-118 0 -197 -84t-79 -210q0 -128 78.5 -211t196.5 -83q117 0 195.5 83.5t78.5 210.5zM581 143h-84l-54 135q-12 28 -25 36t-42 8h-38
v-179h-76v416h120q78 0 124.5 -23.5t46.5 -89.5q0 -35 -22 -61t-58 -34q1 0 1 -1q23 -8 37 -42zM475 442q0 35 -23.5 45.5t-70.5 10.5h-43v-115h44q93 0 93 59z" />
    <glyph glyph-name="degree" unicode="&#xb0;" horiz-adv-x="400" 
d="M360 553q0 -67 -46.5 -111.5t-113.5 -44.5q-68 0 -114 44t-46 111q0 65 47 110.5t113 45.5t113 -45t47 -110zM297 553l1 -1q0 44 -27.5 69.5t-70.5 25.5t-70.5 -26t-27.5 -68t28 -68.5t70 -26.5q40 0 68.5 27t28.5 68z" />
    <glyph glyph-name="plusminus" unicode="&#xb1;" horiz-adv-x="600" 
d="M554 270h-211v-152h-86v151h-211v87h210v151h87v-151h211v-86zM554 0h-508v87h508v-87z" />
    <glyph glyph-name="twosuperior" unicode="&#xb2;" horiz-adv-x="639" 
d="M420 710h-1q37 0 87 -8.5t80 -21.5l-14 -89q-62 34 -154 34q-120 0 -189.5 -78t-69.5 -199q0 -122 69.5 -198.5t190.5 -76.5q102 0 155 30l11 -89q-75 -26 -165 -26q-11 0 -14 1l-26 -42l2 -1q3 0 15.5 2t20.5 2q32 0 54.5 -17.5t22.5 -49.5q0 -46 -35 -66.5t-83 -20.5
q-68 0 -113 21l18 47q46 -23 79 -23q53 0 53 36q0 37 -41 37q-19 0 -42 -7l-4 23l36 62q-145 14 -228 106t-83 245q0 169 99 268t269 99z" />
    <glyph glyph-name="threesuperior" unicode="&#xb3;" horiz-adv-x="695" 
d="M503 869q-2 -46 -26.5 -80.5t-63.5 -34.5q-24 0 -74 24q-38 17 -57 17q-39 0 -47 -40h-45q4 42 28.5 74t62.5 32q19 0 68 -19q6 -3 19.5 -10.5t23 -11t19.5 -3.5q19 0 31.5 15.5t14.5 36.5h46zM619 0h-132l-308 562h-2v-562h-102v698h130l310 -568h2v568h102v-698z" />
    <glyph glyph-name="mu" unicode="&#xb5;" 
d="M514 0h-92q-4 13 -4 57v24h-2q-62 -93 -167 -93q-45 0 -77 19v-217h-98v723h98v-293q0 -153 104 -153q50 0 82 30t42.5 67.5t10.5 80.5v268h98v-395q0 -77 5 -118z" />
    <glyph glyph-name="mu" unicode="&#x3bc;" 
d="M514 0h-92q-4 13 -4 57v24h-2q-62 -93 -167 -93q-45 0 -77 19v-217h-98v723h98v-293q0 -153 104 -153q50 0 82 30t42.5 67.5t10.5 80.5v268h98v-395q0 -77 5 -118z" />
    <glyph glyph-name="periodcentered" unicode="&#xb7;" horiz-adv-x="278" 
d="M202 298q0 -29 -17.5 -46t-44.5 -17t-45 17t-18 45q0 29 17.5 46t44.5 17t45 -17t18 -45z" />
    <glyph glyph-name="periodcentered" unicode="&#x22c5;" horiz-adv-x="278" 
d="M202 298q0 -29 -17.5 -46t-44.5 -17t-45 17t-18 45q0 29 17.5 46t44.5 17t45 -17t18 -45z" />
    <glyph glyph-name="onesuperior" unicode="&#xb9;" horiz-adv-x="695" 
d="M449 822q0 -42 -29.5 -71.5t-71.5 -29.5t-72 29.5t-30 71.5t30 71.5t72 29.5t71.5 -29.5t29.5 -71.5zM684 0h-114l-67 174h-318l-68 -174h-106l279 698h118zM404 822q0 23 -16 39.5t-40 16.5t-40.5 -16t-16.5 -40q0 -23 17 -39.5t40 -16.5t39.5 16t16.5 40zM472 258
l-126 337l-2 -1l-126 -336h254z" />
    <glyph glyph-name="guillemotright" unicode="&#xbb;" horiz-adv-x="556" 
d="M486 269l-129 -205h-93l122 205l-122 205h93zM287 269l-129 -205h-93l122 205l-122 205h93z" />
    <glyph glyph-name="onehalf" unicode="&#xbd;" horiz-adv-x="834" 
d="M788 0h-287v61q7 4 49 39.5t58 51.5q91 91 91 144q0 29 -19 45.5t-51 16.5q-55 0 -107 -33l-8 69q64 31 126 31q65 0 105 -30t40 -93q0 -42 -24 -79t-66 -79q-16 -16 -48 -43t-43 -33l1 -1h183v-67zM625 720l-430 -742h-70l430 742h70zM229 283h-81v343l-76 -59l-38 47
l121 91h74v-422z" />
    <glyph glyph-name="Adieresis" unicode="&#xc4;" horiz-adv-x="695" 
d="M500 813q0 -24 -17 -41t-40 -17q-24 0 -41 17t-17 41t17 41t41 17q23 0 40 -17t17 -41zM311 813q0 -24 -17 -41t-41 -17t-41 17t-17 41t17 41t41 17t41 -17t17 -41zM684 0h-114l-67 174h-318l-68 -174h-106l279 698h118zM471 259l-125 336l-2 -1l-126 -335h253z" />
    <glyph glyph-name="Eacute" unicode="&#xc9;" horiz-adv-x="528" 
d="M390 870l-131 -136h-65l88 136h108zM468 0h-385v698h378v-85h-273v-210h254v-85h-254v-233h280v-85z" />
    <glyph glyph-name="Odieresis" unicode="&#xd6;" horiz-adv-x="750" 
d="M533 813q0 -24 -17 -41t-41 -17t-41 17t-17 41t17 41t41 17t41 -17t17 -41zM343 813q0 -24 -16.5 -41t-40.5 -17t-41 17t-17 41t17 41t41 17t40.5 -17t16.5 -41zM700 350q0 -162 -85.5 -262t-239.5 -100q-155 0 -240 99t-85 263q0 158 84 259t241 101q155 0 240 -101.5
t85 -258.5zM375 625q-72 0 -123 -41.5t-72.5 -101.5t-21.5 -132q0 -53 12.5 -101t38 -88.5t68 -64t98.5 -23.5q107 0 162 81.5t55 195.5q0 112 -55.5 193.5t-161.5 81.5z" />
    <glyph glyph-name="Udieresis" unicode="&#xdc;" horiz-adv-x="695" 
d="M501 813q0 -24 -17 -41t-41 -17t-41 17t-17 41t17 41t41 17t41 -17t17 -41zM311 813q0 -24 -17 -41t-41 -17q-23 0 -40 17t-17 41t17 41t40 17q24 0 41 -17t17 -41zM617 248q0 -71 -22 -123t-60.5 -81t-85 -42.5t-101.5 -13.5t-101.5 13.5t-85.5 42.5t-61 81t-22 123v450
h105v-428q0 -91 41 -144t123 -53q83 0 124 52.5t41 143.5v429h105v-450z" />
    <glyph glyph-name="germandbls" unicode="&#xdf;" 
d="M536 238q0 -116 -56.5 -183.5t-162.5 -67.5q-60 0 -93 21l23 71q21 -12 48 -12q72 0 104 48.5t32 122.5q0 70 -33.5 110.5t-94.5 40.5h-6v83h5q34 0 58.5 25t24.5 67q0 44 -26.5 81t-81.5 37q-111 0 -111 -170v-515h-97v531q0 42 11.5 82t35.5 75t65.5 56t95.5 21
q94 0 152.5 -55t58.5 -141q0 -32 -21 -68t-68 -56q63 -23 100 -82t37 -122z" />
    <glyph glyph-name="agrave" unicode="&#xe0;" horiz-adv-x="528" 
d="M325 574h-64l-132 135h108zM466 0h-88q-4 14 -4 44v18q0 15 1 18h-2q-21 -42 -68 -67t-96 -25q-87 0 -129 43.5t-42 104.5q0 110 101 153q22 9 41 14.5t42.5 7.5t32 3t38 0.5t32.5 -0.5h44q0 98 -72 124q-75 27 -193 -33l-24 74q85 46 178 48q99 2 151 -48t52 -158v-210
q0 -72 5 -111zM368 232l1 15h-53q-180 0 -180 -105q0 -40 26.5 -59t69.5 -19q68 0 107 49q6 8 11 18.5t7.5 19t4.5 22l3 20t2 21t1 18.5z" />
    <glyph glyph-name="acircumflex" unicode="&#xe2;" horiz-adv-x="528" 
d="M410 574h-67l-78 84l-79 -84h-68l101 135h92zM466 0h-88q-4 14 -4 44v18q0 15 1 18h-2q-21 -42 -68 -67t-96 -25q-87 0 -129 43.5t-42 104.5q0 110 101 153q22 9 41 14.5t42.5 7.5t32 3t38 0.5t32.5 -0.5h44q0 98 -72 124q-75 27 -193 -33l-24 74q85 46 178 48
q99 2 151 -48t52 -158v-210q0 -72 5 -111zM368 232l1 15h-53q-180 0 -180 -105q0 -40 26.5 -59t69.5 -19q68 0 107 49q6 8 11 18.5t7.5 19t4.5 22l3 20t2 21t1 18.5z" />
    <glyph glyph-name="adieresis" unicode="&#xe4;" horiz-adv-x="528" 
d="M429 656q0 -24 -17 -41t-41 -17t-41 17t-17 41q0 23 17 40t41 17t41 -17t17 -40zM239 656q0 -24 -16.5 -41t-40.5 -17t-41 17t-17 41q0 23 17 40t41 17t40.5 -17t16.5 -40zM466 0h-88q-4 14 -4 44v18q0 15 1 18h-2q-21 -42 -68 -67t-96 -25q-87 0 -129 43.5t-42 104.5
q0 110 101 153q22 9 41 14.5t42.5 7.5t32 3t38 0.5t32.5 -0.5h44q0 98 -72 124q-75 27 -193 -33l-24 74q85 46 178 48q99 2 151 -48t52 -158v-210q0 -72 5 -111zM368 232l1 15h-53q-180 0 -180 -105q0 -40 26.5 -59t69.5 -19q68 0 107 49q6 8 11 18.5t7.5 19t4.5 22l3 20
t2 21t1 18.5z" />
    <glyph glyph-name="ccedilla" unicode="&#xe7;" horiz-adv-x="444" 
d="M289 525q63 0 130 -20l-12 -82q-51 23 -100 23q-76 0 -120 -52t-44 -136q0 -83 43 -137t119 -54q52 0 109 24l9 -86q-52 -16 -123 -16h-2l-26 -42l2 -1q3 0 15.5 2t20.5 2q32 0 54.5 -17.5t22.5 -49.5q0 -46 -35 -66.5t-83 -20.5q-57 0 -109 22l14 46q46 -23 79 -23
q53 0 53 36q0 37 -41 37q-19 0 -42 -7l-4 23l36 60q-105 12 -161 85t-56 182q0 117 68 192.5t183 75.5z" />
    <glyph glyph-name="egrave" unicode="&#xe8;" horiz-adv-x="528" 
d="M325 574h-64l-132 135h108zM490 226l-353 1q2 -73 44 -118t113 -45q82 0 157 45l8 -83q-74 -38 -170 -38q-124 0 -187.5 71.5t-63.5 195.5q0 118 61 194t166 76q113 0 167.5 -72t56.5 -192q0 -3 0.5 -17t0.5 -18zM391 300v-1q-3 65 -31.5 107.5t-87.5 42.5
q-60 0 -96.5 -44t-38.5 -105h254z" />
    <glyph glyph-name="eacute" unicode="&#xe9;" horiz-adv-x="528" 
d="M394 709l-131 -135h-65l88 135h108zM490 226l-353 1q2 -73 44 -118t113 -45q82 0 157 45l8 -83q-74 -38 -170 -38q-124 0 -187.5 71.5t-63.5 195.5q0 118 61 194t166 76q113 0 167.5 -72t56.5 -192q0 -3 0.5 -17t0.5 -18zM391 300v-1q-3 65 -31.5 107.5t-87.5 42.5
q-60 0 -96.5 -44t-38.5 -105h254z" />
    <glyph glyph-name="ecircumflex" unicode="&#xea;" horiz-adv-x="528" 
d="M410 574h-67l-78 84l-79 -84h-68l101 135h92zM490 226l-353 1q2 -73 44 -118t113 -45q82 0 157 45l8 -83q-74 -38 -170 -38q-124 0 -187.5 71.5t-63.5 195.5q0 118 61 194t166 76q113 0 167.5 -72t56.5 -192q0 -3 0.5 -17t0.5 -18zM391 300v-1q-3 65 -31.5 107.5
t-87.5 42.5q-60 0 -96.5 -44t-38.5 -105h254z" />
    <glyph glyph-name="edieresis" unicode="&#xeb;" horiz-adv-x="528" 
d="M434 656q0 -24 -17 -41t-41 -17t-41 17t-17 41q0 23 17 40t41 17t41 -17t17 -40zM244 656q0 -24 -16.5 -41t-40.5 -17t-41 17t-17 41q0 23 17 40t41 17t40.5 -17t16.5 -40zM490 226l-353 1q2 -73 44 -118t113 -45q82 0 157 45l8 -83q-74 -38 -170 -38q-124 0 -187.5 71.5
t-63.5 195.5q0 118 61 194t166 76q113 0 167.5 -72t56.5 -192q0 -3 0.5 -17t0.5 -18zM391 300v-1q-3 65 -31.5 107.5t-87.5 42.5q-60 0 -96.5 -44t-38.5 -105h254z" />
    <glyph glyph-name="icircumflex" unicode="&#xee;" horiz-adv-x="250" 
d="M271 574h-67l-78 89l-79 -89h-68l101 140h92zM174 0h-99v513h99v-513z" />
    <glyph glyph-name="idieresis" unicode="&#xef;" horiz-adv-x="250" 
d="M280 656q0 -24 -17 -41t-41 -17t-41 17t-17 41q0 23 17 40t41 17t41 -17t17 -40zM90 656q0 -24 -17 -41t-40 -17q-24 0 -41 17t-17 41q0 23 17 40t41 17q23 0 40 -17t17 -40zM174 0h-99v513h99v-513z" />
    <glyph glyph-name="ocircumflex" unicode="&#xf4;" 
d="M438 574h-67l-78 84l-79 -84h-68l101 135h92zM546 254v1q0 -114 -66.5 -190.5t-187.5 -76.5t-187.5 76.5t-66.5 189.5q0 119 68.5 195t184.5 76q117 0 186 -76t69 -195zM291 446h1q-71 0 -110.5 -53t-39.5 -130q0 -83 37 -139.5t112 -56.5t112.5 55.5t37.5 139.5
q0 79 -39 131.5t-111 52.5z" />
    <glyph glyph-name="odieresis" unicode="&#xf6;" 
d="M445 656q0 -24 -17 -41t-41 -17q-23 0 -40 17t-17 41q0 23 17 40t40 17q24 0 41 -17t17 -40zM256 656q0 -24 -17 -41t-41 -17t-41 17t-17 41q0 23 17 40t41 17t41 -17t17 -40zM546 254v1q0 -114 -66.5 -190.5t-187.5 -76.5t-187.5 76.5t-66.5 189.5q0 119 68.5 195
t184.5 76q117 0 186 -76t69 -195zM291 446h1q-71 0 -110.5 -53t-39.5 -130q0 -83 37 -139.5t112 -56.5t112.5 55.5t37.5 139.5q0 79 -39 131.5t-111 52.5z" />
    <glyph glyph-name="divide" unicode="&#xf7;" horiz-adv-x="600" 
d="M371 451q0 -29 -20.5 -50t-50.5 -21t-50.5 21t-20.5 50q0 30 20.5 50.5t50.5 20.5t50.5 -21t20.5 -50zM554 210h-508v87h508v-87zM371 55v1q0 -30 -20.5 -50.5t-50.5 -20.5t-50.5 20.5t-20.5 49.5q0 30 20.5 50.5t50.5 20.5t50.5 -20.5t20.5 -50.5z" />
    <glyph glyph-name="ugrave" unicode="&#xf9;" 
d="M353 574h-64l-132 135h108zM512 0h-94v81h-2q-62 -93 -167 -93q-89 0 -132 54t-43 145v326h98v-293q0 -153 104 -153q50 0 82 30t42.5 67.5t10.5 80.5v268h98v-392v-24q0 -73 3 -97z" />
    <glyph glyph-name="ucircumflex" unicode="&#xfb;" 
d="M438 574h-67l-78 84l-79 -84h-68l101 135h92zM512 0h-94v81h-2q-62 -93 -167 -93q-89 0 -132 54t-43 145v326h98v-293q0 -153 104 -153q50 0 82 30t42.5 67.5t10.5 80.5v268h98v-392v-24q0 -73 3 -97z" />
    <glyph glyph-name="udieresis" unicode="&#xfc;" 
d="M444 656q0 -24 -17 -41t-40 -17q-24 0 -41 17t-17 41q0 23 17 40t41 17q23 0 40 -17t17 -40zM255 656q0 -24 -17 -41t-41 -17t-41 17t-17 41q0 23 17 40t41 17t41 -17t17 -40zM512 0h-94v81h-2q-62 -93 -167 -93q-89 0 -132 54t-43 145v326h98v-293q0 -153 104 -153
q50 0 82 30t42.5 67.5t10.5 80.5v268h98v-392v-24q0 -73 3 -97z" />
    <glyph glyph-name="oe" unicode="&#x153;" horiz-adv-x="917" 
d="M880 227h-342q0 -75 41.5 -119t113.5 -44q83 0 148 45l18 -82q-92 -39 -170 -39q-149 0 -203 95q-61 -95 -196 -95q-121 0 -187.5 76.5t-66.5 189.5q0 119 68.5 195t184.5 76q135 0 192 -100q58 100 182 100q110 0 162.5 -74t54.5 -189v-35zM782 300l-1 -1
q0 63 -29.5 106.5t-85.5 43.5q-60 0 -94.5 -42t-34.5 -107h245zM436 255q0 53 -12 94t-46 70.5t-88 29.5q-72 0 -111 -56.5t-39 -136.5q0 -82 37.5 -137t111.5 -55q79 0 113 53t34 138z" />
    <glyph glyph-name="tonos" unicode="&#x384;" horiz-adv-x="250" 
d="M237 714l-131 -136h-65l88 136h108z" />
    <glyph glyph-name="dieresistonos" unicode="&#x385;" horiz-adv-x="250" 
d="M334 651q0 -24 -17 -41t-41 -17t-41 17t-17 41t17 41t41 17t41 -17t17 -41zM232 714l-131 -136h-65l88 136h108zM50 651q0 -24 -16.5 -41t-40.5 -17t-41 17t-17 41t17 41t41 17t40.5 -17t16.5 -41z" />
    <glyph glyph-name="Alphatonos" unicode="&#x386;" horiz-adv-x="695" 
d="M213 714l-131 -136h-65l88 136h108zM684 0h-114l-67 174h-318l-68 -174h-106l279 698h118zM471 259l-125 336l-2 -1l-126 -335h253z" />
    <glyph glyph-name="Epsilontonos" unicode="&#x388;" horiz-adv-x="528" 
d="M468 0h-385v698h378v-85h-273v-210h254v-85h-254v-233h280v-85zM59 714l-132 -136h-64l88 136h108z" />
    <glyph glyph-name="Etatonos" unicode="&#x389;" horiz-adv-x="695" 
d="M610 0h-104v318h-317v-318h-105v698h105v-296h316v296h105v-698zM59 714l-132 -136h-64l88 136h108z" />
    <glyph glyph-name="Iotatonos" unicode="&#x38a;" horiz-adv-x="250" 
d="M48 714l-131 -136h-65l88 136h108zM178 0h-105v698h105v-698z" />
    <glyph glyph-name="Omicrontonos" unicode="&#x38c;" horiz-adv-x="750" 
d="M700 350q0 -162 -85.5 -262t-239.5 -100q-155 0 -240 99t-85 263q0 158 84 259t241 101q155 0 240 -101.5t85 -258.5zM130 714l-132 -136h-64l88 136h108zM375 625q-72 0 -123 -41.5t-72.5 -101.5t-21.5 -132q0 -53 12.5 -101t38 -88.5t68 -64t98.5 -23.5q107 0 162 81.5
t55 195.5q0 112 -55.5 193.5t-161.5 81.5z" />
    <glyph glyph-name="Upsilontonos" unicode="&#x38e;" horiz-adv-x="639" 
d="M628 698l-255 -412v-286h-104v286l-258 412h122l189 -317l194 317h112zM-5 714l-131 -136h-65l88 136h108z" />
    <glyph glyph-name="Omegatonos" unicode="&#x38f;" horiz-adv-x="751" 
d="M702 0h-271v103q79 20 120 94.5t41 167.5q0 64 -21.5 121.5t-72.5 99.5t-123 42q-55 0 -97.5 -23.5t-67.5 -62.5t-38 -84t-13 -93q0 -93 41 -168t121 -95v-102h-267v85h119q-121 91 -121 280q0 66 20.5 127t59.5 110t102 78.5t141 29.5q77 0 140 -29.5t102.5 -78.5
t60.5 -110t21 -127q0 -89 -32 -162t-92 -118h127v-85zM125 714l-131 -136h-65l88 136h108z" />
    <glyph glyph-name="iotadieresistonos" unicode="&#x390;" horiz-adv-x="250" 
d="M334 651q0 -24 -17 -41t-41 -17t-41 17t-17 41t17 41t41 17t41 -17t17 -41zM232 714l-131 -136h-65l88 136h108zM50 651q0 -24 -16.5 -41t-40.5 -17t-41 17t-17 41t17 41t41 17t40.5 -17t16.5 -41zM174 0h-99v513h99v-513z" />
    <glyph glyph-name="Alpha" unicode="&#x391;" horiz-adv-x="695" 
d="M684 0h-114l-67 174h-318l-68 -174h-106l279 698h118zM471 259l-125 336l-2 -1l-126 -335h253z" />
    <glyph glyph-name="Beta" unicode="&#x392;" 
d="M530 201q0 -47 -16 -83.5t-41 -58t-60 -35.5t-69 -19t-72 -5h-192v698h205q43 0 79 -7.5t70.5 -25.5t54.5 -54.5t20 -87.5q0 -65 -35 -105.5t-99 -52.5v-2q70 -9 112.5 -52.5t42.5 -109.5zM260 613h-74v-209h67q151 0 151 108q0 101 -144 101zM425 201q0 31 -10.5 54
t-26.5 36t-40.5 20.5t-47 9.5t-51.5 2h-64v-238h69q171 0 171 116z" />
    <glyph glyph-name="Gamma" unicode="&#x393;" horiz-adv-x="453" 
d="M439 613h-255v-613h-105v698h360v-85z" />
    <glyph glyph-name="Delta" unicode="&#x394;" horiz-adv-x="695" 
d="M684 0h-673l279 698h118zM536 85l-190 510l-2 -1l-193 -509h385z" />
    <glyph glyph-name="Epsilon" unicode="&#x395;" horiz-adv-x="528" 
d="M468 0h-385v698h378v-85h-273v-210h254v-85h-254v-233h280v-85z" />
    <glyph glyph-name="Zeta" unicode="&#x396;" horiz-adv-x="528" 
d="M495 0h-467v87l347 526h-336v85h447v-87l-347 -526h356v-85z" />
    <glyph glyph-name="Eta" unicode="&#x397;" horiz-adv-x="695" 
d="M610 0h-104v318h-317v-318h-105v698h105v-296h316v296h105v-698z" />
    <glyph glyph-name="Theta" unicode="&#x398;" horiz-adv-x="750" 
d="M700 350q0 -162 -85.5 -262t-239.5 -100q-155 0 -240 99t-85 263q0 158 84 259t241 101q155 0 240 -101.5t85 -258.5zM588 403v-1q-11 96 -65 159.5t-148 63.5q-93 0 -147.5 -64t-65.5 -158h426zM591 317l-432 1q7 -103 62 -174t154 -71t154 71t62 173z" />
    <glyph glyph-name="Iota" unicode="&#x399;" horiz-adv-x="250" 
d="M178 0h-105v698h105v-698z" />
    <glyph glyph-name="Kappa" unicode="&#x39a;" horiz-adv-x="639" 
d="M627 0h-139l-294 336l-1 1v-337h-105v698h104v-307l283 307h132l-313 -329z" />
    <glyph glyph-name="Lambda" unicode="&#x39b;" horiz-adv-x="695" 
d="M684 0h-114l-225 595l-1 -1l-227 -594h-106l279 698h118z" />
    <glyph glyph-name="Mu" unicode="&#x39c;" horiz-adv-x="917" 
d="M833 0h-101v603h-2l-221 -603h-97l-225 602h-2v-602h-102v698h166l210 -572l2 2l210 570h162v-698z" />
    <glyph glyph-name="Nu" unicode="&#x39d;" horiz-adv-x="695" 
d="M619 0h-132l-308 562h-2v-562h-102v698h130l310 -568h2v568h102v-698z" />
    <glyph glyph-name="Xi" unicode="&#x39e;" horiz-adv-x="544" 
d="M497 0h-447v85h171v232h-140v85h140v211h-165v85h436v-85h-166v-210h141v-85h-141v-233h171v-85z" />
    <glyph glyph-name="Omicron" unicode="&#x39f;" horiz-adv-x="751" 
d="M700 350q0 -163 -85 -262.5t-239 -99.5q-155 0 -240 99t-85 263q0 158 84 259t241 101q155 0 239.5 -101.5t84.5 -258.5zM376 625q-72 0 -123 -41.5t-72.5 -101.5t-21.5 -132q0 -53 12.5 -101t38 -88.5t68 -64t98.5 -23.5q107 0 162 81.5t55 195.5q0 112 -55.5 193.5
t-161.5 81.5z" />
    <glyph glyph-name="Pi" unicode="&#x3a0;" horiz-adv-x="695" 
d="M610 0h-104v613h-317v-613h-105v698h526v-698z" />
    <glyph glyph-name="Rho" unicode="&#x3a1;" horiz-adv-x="528" 
d="M506 494q0 -106 -68 -158t-178 -52h-78v-284h-105v698h175q114 0 184 -49.5t70 -154.5zM398 489q0 62 -36.5 93t-98.5 31h-81v-245h48q77 0 122.5 25.5t45.5 95.5z" />
    <glyph glyph-name="Sigma" unicode="&#x3a3;" horiz-adv-x="528" 
d="M495 0h-467v87l178 272l-167 252v87h446v-85h-335l168 -254l-179 -274h356v-85z" />
    <glyph glyph-name="Tau" unicode="&#x3a4;" horiz-adv-x="528" 
d="M520 613h-203v-613h-105v613h-203v85h511v-85z" />
    <glyph glyph-name="Upsilon" unicode="&#x3a5;" horiz-adv-x="639" 
d="M628 698l-255 -412v-286h-104v286l-258 412h122l189 -317l194 317h112z" />
    <glyph glyph-name="Phi" unicode="&#x3a6;" horiz-adv-x="791" 
d="M738 351q0 -117 -78 -204t-214 -102v-45h-104v45q-137 15 -213.5 100t-76.5 206q0 114 77 202t213 103v42h104v-42q137 -14 214.5 -102.5t77.5 -202.5zM446 569v-440q90 15 139.5 77.5t49.5 144.5q0 77 -50.5 140.5t-138.5 77.5zM342 130v439q-87 -14 -136.5 -77.5
t-49.5 -140.5q0 -81 48.5 -143.5t137.5 -77.5z" />
    <glyph glyph-name="Chi" unicode="&#x3a7;" horiz-adv-x="639" 
d="M631 0h-125l-187 295l-192 -295h-119l245 365l-221 333h121l171 -266l174 266h114l-223 -333z" />
    <glyph glyph-name="Psi" unicode="&#x3a8;" horiz-adv-x="765" 
d="M685 389q0 -69 -20.5 -120t-56.5 -80t-79.5 -43.5t-95.5 -16.5v-129h-105v130q-51 2 -94.5 16.5t-79.5 43.5t-56.5 80t-20.5 119v309h105v-287q0 -86 36.5 -137.5t109.5 -58.5v483h105v-483q74 6 111 57.5t37 138.5v287h104v-309z" />
    <glyph glyph-name="Omega" unicode="&#x3a9;" horiz-adv-x="751" 
d="M702 0h-271v103q79 20 120 94.5t41 167.5q0 64 -21.5 121.5t-72.5 99.5t-123 42q-55 0 -97.5 -23.5t-67.5 -62.5t-38 -84t-13 -93q0 -93 41 -168t121 -95v-102h-267v85h119q-121 91 -121 280q0 66 20.5 127t59.5 110t102 78.5t141 29.5q77 0 140 -29.5t102.5 -78.5
t60.5 -110t21 -127q0 -89 -32 -162t-92 -118h127v-85z" />
    <glyph glyph-name="Iotadieresis" unicode="&#x3aa;" horiz-adv-x="250" 
d="M280 815q0 -24 -17 -41t-41 -17t-41 17t-17 41t17 41t41 17t41 -17t17 -41zM90 815q0 -24 -16.5 -41t-40.5 -17t-41 17t-17 41t17 41t41 17t40.5 -17t16.5 -41zM178 0h-105v698h105v-698z" />
    <glyph glyph-name="Upsilondieresis" unicode="&#x3ab;" horiz-adv-x="639" 
d="M474 814q0 -24 -17 -41t-41 -17q-23 0 -40 17t-17 41t17 41t40 17q24 0 41 -17t17 -41zM285 814q0 -24 -17 -41t-41 -17t-41 17t-17 41t17 41t41 17t41 -17t17 -41zM628 698l-255 -412v-286h-104v286l-258 412h122l189 -317l194 317h112z" />
    <glyph glyph-name="alphatonos" unicode="&#x3ac;" horiz-adv-x="577" 
d="M401 714l-131 -136h-65l88 136h108zM508 512q-6 -44 -6 -105v-407h-98v73h-2q-50 -84 -147 -84q-106 0 -159.5 74.5t-53.5 191.5q0 113 54 191t159 78q90 0 151 -90h2v32l4 46h96zM403 255q0 47 -10.5 87.5t-41 72t-77.5 31.5q-49 0 -79 -31.5t-39 -71t-9 -88.5
q0 -35 5.5 -65.5t18.5 -60t39 -46.5t63 -17q46 0 77 31t42 71.5t11 86.5z" />
    <glyph glyph-name="epsilontonos" unicode="&#x3ad;" horiz-adv-x="447" 
d="M375 714l-132 -136h-64l88 136h108zM436 24q-89 -35 -173 -35q-94 0 -159 42t-65 117q0 42 28 76t71 47q-40 15 -63.5 43t-23.5 66q0 72 57 107.5t138 35.5q97 0 171 -27l-25 -78q-74 34 -140 30q-47 -2 -77 -22t-30 -45q0 -68 90 -74h17h19.5h16.5h67v-75h-77
q-143 0 -143 -80q0 -41 36 -64.5t89 -23.5q71 0 152 37z" />
    <glyph glyph-name="etatonos" unicode="&#x3ae;" 
d="M375 714l-132 -136h-64l88 136h108zM510 0h-99v292q0 70 -22 112t-82 42q-38 0 -65.5 -17t-42 -44.5t-20.5 -56.5t-6 -61v-267h-99v395q0 75 -5 118h91l5 -47v-35h2q53 94 168 94q89 0 132 -54t43 -145v-326z" />
    <glyph glyph-name="iotatonos" unicode="&#x3af;" horiz-adv-x="250" 
d="M255 714l-131 -140h-65l88 140h108zM174 0h-99v513h99v-513z" />
    <glyph glyph-name="upsilondieresistonos" unicode="&#x3b0;" horiz-adv-x="594" 
d="M502 651q0 -24 -17 -41t-41 -17t-41 17t-17 41t17 41t41 17t41 -17t17 -41zM401 714l-132 -136h-64l88 136h108zM219 651q0 -24 -17 -41t-41 -17t-41 17t-17 41t17 41t41 17t41 -17t17 -41zM521 178q0 -52 -21 -90.5t-55.5 -58.5t-71 -29t-75.5 -9t-76 9t-72 29t-56 58.5
t-21 90.5v247q0 53 -10 87h98q10 -21 10 -73v-258q0 -51 34.5 -82.5t91.5 -31.5t91.5 31.5t34.5 82.5v331h98v-334z" />
    <glyph glyph-name="alpha" unicode="&#x3b1;" horiz-adv-x="577" 
d="M508 512q-6 -44 -6 -105v-407h-98v73h-2q-50 -84 -147 -84q-106 0 -159.5 74.5t-53.5 191.5q0 113 54 191t159 78q55 0 89 -25t61 -65h2v32l5 46h96zM403 255q0 47 -10.5 87.5t-41 72t-77.5 31.5q-49 0 -79 -31.5t-39.5 -71t-9.5 -88.5q0 -35 5.5 -65.5t18.5 -60
t39 -46.5t63 -17q46 0 77 31t42.5 71.5t11.5 86.5z" />
    <glyph glyph-name="beta" unicode="&#x3b2;" 
d="M536 238q0 -116 -56.5 -183.5t-162.5 -67.5q-96 0 -148 88l-1 1v-2v-282v-2h-99v2v736q0 42 11.5 82t35.5 75t65.5 56t95.5 21q94 0 152.5 -55t58.5 -141q0 -32 -21 -68t-68 -56q63 -23 100 -82t37 -122zM431 238q0 70 -35.5 110.5t-105.5 40.5h-77v83h89q34 0 58.5 25
t24.5 67q0 44 -26.5 81t-81.5 37q-53 0 -81 -39t-28 -131v-256q0 -42 11.5 -82.5t41.5 -73.5t74 -33q72 0 104 48.5t32 122.5z" />
    <glyph glyph-name="gamma" unicode="&#x3b3;" horiz-adv-x="500" 
d="M490 513l-192 -485v-238h-98v242l-190 481h107l134 -359h2l136 359h101z" />
    <glyph glyph-name="delta" unicode="&#x3b4;" 
d="M542 250q0 -105 -66.5 -183.5t-184.5 -78.5q-119 0 -184.5 77t-65.5 185q0 81 38.5 149.5t107.5 95.5q-64 44 -64 108q0 77 60.5 116.5t138.5 39.5q71 0 153 -21l-9 -84q-57 26 -131 26q-45 0 -79.5 -17t-34.5 -55q0 -17 10.5 -31.5t34.5 -27t41 -19.5t51 -19
q88 -32 136 -101.5t48 -159.5zM438 258q0 66 -38 123t-109 57q-70 0 -108 -53t-38 -127q0 -79 36.5 -136t109.5 -57q75 0 111 56t36 137z" />
    <glyph glyph-name="epsilon" unicode="&#x3b5;" horiz-adv-x="447" 
d="M436 24q-89 -35 -173 -35q-94 0 -159 42t-65 117q0 42 28 76t71 47q-40 15 -63.5 43t-23.5 66q0 72 57 107.5t138 35.5q97 0 171 -27l-25 -78q-74 34 -140 30q-47 -2 -77 -22t-30 -45q0 -68 90 -74h17h19.5h16.5h67v-75h-77q-143 0 -143 -80q0 -41 36 -64.5t89 -23.5
q71 0 152 37z" />
    <glyph glyph-name="zeta" unicode="&#x3b6;" horiz-adv-x="383" 
d="M435 669q-147 -111 -236.5 -252t-63.5 -235q9 -32 35.5 -54.5t60.5 -32t59.5 -13t48.5 -3.5h64v-238h-95v156q-51 1 -91 8.5t-80.5 25t-68.5 53.5t-39 89q-23 110 63 246.5t233 247.5h-251v79h361v-77z" />
    <glyph glyph-name="eta" unicode="&#x3b7;" 
d="M510 0h-99v292q0 70 -22 112t-82 42q-38 0 -65.5 -17t-42 -44.5t-20.5 -56.5t-6 -61v-267h-99v395q0 75 -5 118h91l5 -47v-35h2q53 94 168 94q89 0 132 -54t43 -145v-326z" />
    <glyph glyph-name="theta" unicode="&#x3b8;" horiz-adv-x="580" 
d="M537 366q0 -80 -13.5 -146t-41.5 -119.5t-77 -83.5t-115 -30q-88 0 -145.5 53.5t-80 135t-22.5 190.5q0 176 61 280.5t186 104.5q126 0 187 -104.5t61 -280.5zM433 424q-16 249 -143 249q-48 0 -80 -37t-46 -90.5t-17 -121.5h286zM434 348h-288q6 -282 143 -282
q139 0 145 282z" />
    <glyph glyph-name="iota" unicode="&#x3b9;" horiz-adv-x="250" 
d="M174 0h-99v513h99v-513z" />
    <glyph glyph-name="kappa" unicode="&#x3ba;" horiz-adv-x="528" 
d="M516 0h-129l-211 255l-2 1v-256h-99v513h99v-208l2 1l193 207h120l-221 -228z" />
    <glyph glyph-name="lambda" unicode="&#x3bb;" 
d="M513 0h-97v255q0 70 -32.5 126.5t-102.5 56.5q-34 0 -56 -13t-32 -37.5t-13 -48t-3 -57.5v-282h-98v307q0 210 174 210q53 0 95 -24.5t66 -65.5h2q0 7 0.5 29.5t0.5 31.5v15q0 83 -30.5 127t-108.5 41q-58 -4 -123 -44l-24 75q89 41 168 46q112 4 162.5 -55.5
t50.5 -176.5z" />
    <glyph glyph-name="nu" unicode="&#x3bd;" horiz-adv-x="500" 
d="M490 513l-185 -513h-112l-183 513h107l134 -409h2l136 409h101z" />
    <glyph glyph-name="xi" unicode="&#x3be;" horiz-adv-x="449" 
d="M446 721l-25 -81q-71 30 -112 32q-59 3 -103.5 -18.5t-52.5 -74.5q-8 -62 31 -92t101 -30h124v-81h-144q-57 0 -95.5 -43t-38.5 -104q0 -53 36.5 -88.5t85.5 -49t106 -13.5h75v-237h-94v155q-55 0 -106.5 12.5t-97 38.5t-72.5 72t-27 106q0 59 30 116.5t90 83.5
q-60 23 -83.5 72t-8.5 107q18 69 81.5 110.5t152.5 37.5q66 -3 147 -31z" />
    <glyph glyph-name="omicron" unicode="&#x3bf;" 
d="M546 255q0 -114 -66.5 -190.5t-187.5 -76.5t-187.5 76.5t-66.5 189.5q0 119 68.5 195t184.5 76q117 0 186 -75.5t69 -194.5zM291 446h1q-71 0 -110.5 -53t-39.5 -130q0 -83 37 -139.5t112 -56.5t112.5 55.5t37.5 139.5q0 79 -39 131.5t-111 52.5z" />
    <glyph glyph-name="pi" unicode="&#x3c0;" 
d="M510 0h-99v435h-238v-435h-99v513h436v-513z" />
    <glyph glyph-name="rho" unicode="&#x3c1;" horiz-adv-x="580" 
d="M532 255q0 -118 -53.5 -193t-159.5 -75q-56 0 -92.5 21.5t-63.5 67.5h-2v-286h-99v445q0 80 20 138.5t55.5 90t75.5 46t88 14.5q106 0 168.5 -77t62.5 -192zM427 255h1q0 48 -10.5 88t-41.5 71t-80 31q-36 0 -63.5 -17.5t-42.5 -46.5t-22 -61t-7 -65q0 -74 33.5 -131.5
t101.5 -57.5q49 0 80 31t41 70.5t10 87.5z" />
    <glyph glyph-name="sigma1" unicode="&#x3c2;" horiz-adv-x="417" 
d="M382 145q0 -79 -58.5 -118t-138.5 -39q-82 0 -157 26l21 81q60 -31 128 -31q40 0 70.5 20t30.5 57q0 30 -24.5 50t-60 33t-71 28t-60 46t-24.5 77q0 75 53 112.5t131 37.5q73 0 145 -24l-19 -74q-57 22 -113 22q-95 0 -95 -71q0 -24 25 -41t60.5 -30t71 -29.5t60.5 -50
t25 -82.5z" />
    <glyph glyph-name="sigma" unicode="&#x3c3;" 
d="M582 437h-104q64 -68 64 -188q0 -107 -65.5 -184t-185.5 -77q-80 0 -138 38t-84.5 96t-26.5 127q0 112 67 188t182 76h291v-76zM437 257q0 76 -37 127.5t-109 51.5q-70 0 -107.5 -52.5t-37.5 -126.5q0 -81 35.5 -136.5t109.5 -55.5q75 0 110.5 55.5t35.5 136.5z" />
    <glyph glyph-name="tau" unicode="&#x3c4;" horiz-adv-x="373" 
d="M341 513v-76h-125v-258q0 -50 16 -73.5t52 -28.5q23 -4 64 9l19 -79q-41 -14 -80 -14q-76 0 -123 41t-47 129v273h-93v77h317z" />
    <glyph glyph-name="upsilon" unicode="&#x3c5;" horiz-adv-x="594" 
d="M521 178q0 -52 -21 -90.5t-55.5 -58.5t-71 -29t-75.5 -9t-76 9t-72 29t-56 58.5t-21 90.5v247q0 53 -10 87h98q10 -21 10 -73v-258q0 -51 34.5 -82.5t91.5 -31.5t91.5 31.5t34.5 82.5v331h98v-334z" />
    <glyph glyph-name="phi" unicode="&#x3c6;" horiz-adv-x="702" 
d="M665 255q0 -112 -71.5 -189.5t-191.5 -77.5h-4v-198h-98v198h-3q-121 0 -190.5 76.5t-69.5 189.5q0 101 55 174t147 91l20 -79q-53 -14 -85 -64t-32 -113q0 -81 40 -137.5t115 -58.5h3v457l79 1l21 -1q119 -6 192 -80t73 -189zM400 445h-2v-378h5q74 0 115.5 57.5
t41.5 137.5q0 81 -40 132t-120 51z" />
    <glyph glyph-name="chi" unicode="&#x3c7;" horiz-adv-x="500" 
d="M492 0h-119l-125 206l-129 -206h-111l179 270l-161 243h118l111 -180l111 180h107l-156 -243z" />
    <glyph glyph-name="psi" unicode="&#x3c8;" horiz-adv-x="639" 
d="M577 178q0 -49 -19 -85.5t-51.5 -57t-67 -31t-72.5 -12.5v-202h-98v202q-83 5 -145 49t-62 137v335h99l-1 -332q0 -49 29 -78t80 -34v443l98 33v-476q49 6 80.5 37t31.5 75v331h98v-334z" />
    <glyph glyph-name="omega" unicode="&#x3c9;" horiz-adv-x="780" 
d="M249 -12q-53 0 -93 19.5t-62 47.5t-35 67t-17 70t-4 63q0 27 4.5 55t18 64t35.5 65t61.5 52t91.5 30l20 -77q-48 -7 -79 -40.5t-41.5 -70.5t-10.5 -78q0 -90 35 -138t82 -48q36 0 62 26t26 72v224h95v-105q0 -63 14 -149q6 -32 25 -49.5t46 -18.5q51 -2 86 46.5t35 139.5
q0 41 -10.5 78t-41.5 70.5t-79 40.5l21 77q51 -7 90 -30t61 -52t35.5 -65t18 -64t4.5 -55q0 -32 -4 -63t-17 -70t-35 -67t-61.5 -47.5t-92.5 -19.5q-103 0 -142 74q-20 -39 -59 -56.5t-83 -17.5z" />
    <glyph glyph-name="iotadieresis" unicode="&#x3ca;" horiz-adv-x="250" 
d="M278 651q0 -24 -17 -41t-41 -17t-41 17t-17 41t17 41t41 17t41 -17t17 -41zM88 651q0 -24 -17 -41t-41 -17t-40.5 17t-16.5 41t16.5 41t40.5 17t41 -17t17 -41zM174 0h-99v513h99v-513z" />
    <glyph glyph-name="upsilondieresis" unicode="&#x3cb;" horiz-adv-x="594" 
d="M445 656q0 -24 -17 -41t-41 -17t-41 17t-17 41q0 23 17 40t41 17t41 -17t17 -40zM255 656q0 -24 -17 -41t-40 -17q-24 0 -41 17t-17 41q0 23 17 40t41 17q23 0 40 -17t17 -40zM521 178q0 -52 -21 -90.5t-55.5 -58.5t-71 -29t-75.5 -9t-76 9t-72 29t-56 58.5t-21 90.5v247
q0 53 -10 87h98q10 -21 10 -73v-258q0 -51 34.5 -82.5t91.5 -31.5t91.5 31.5t34.5 82.5v331h98v-334z" />
    <glyph glyph-name="omicrontonos" unicode="&#x3cc;" 
d="M422 714l-131 -140h-65l88 140h108zM546 254v1q0 -114 -66.5 -190.5t-187.5 -76.5t-187.5 76.5t-66.5 189.5q0 119 68.5 195t184.5 76q117 0 186 -76t69 -195zM291 446h1q-71 0 -110.5 -53t-39.5 -130q0 -83 37 -139.5t112 -56.5t112.5 55.5t37.5 139.5q0 79 -39 131.5
t-111 52.5z" />
    <glyph glyph-name="upsilontonos" unicode="&#x3cd;" horiz-adv-x="594" 
d="M425 714l-132 -136h-64l88 136h108zM521 178q0 -52 -21 -90.5t-55.5 -58.5t-71 -29t-75.5 -9t-76 9t-72 29t-56 58.5t-21 90.5v247q0 53 -10 87h98q10 -21 10 -73v-258q0 -51 34.5 -82.5t91.5 -31.5t91.5 31.5t34.5 82.5v331h98v-334z" />
    <glyph glyph-name="omegatonos" unicode="&#x3ce;" horiz-adv-x="780" 
d="M512 714l-131 -136h-65l88 136h108zM248 -12q-53 0 -93 19.5t-61.5 48t-35 67t-17.5 69.5t-4 63q0 27 4.5 55t18.5 64t36 65t61.5 52t91.5 30l19 -77q-48 -7 -79 -40.5t-41 -70.5t-10 -78q0 -90 35 -138t82 -48q36 0 62 26t26 72v224h94v-105q0 -63 14 -149
q6 -32 25.5 -49.5t46.5 -18.5q52 -2 86 46t34 140q0 41 -10.5 78t-41.5 70.5t-79 40.5l21 77q51 -7 90.5 -30t61.5 -52t35.5 -65t18 -64t4.5 -55q0 -32 -4 -63t-17.5 -69.5t-35 -67t-61.5 -48t-93 -19.5q-104 0 -142 74q-41 -74 -142 -74z" />
    <glyph glyph-name="endash" unicode="&#x2013;" horiz-adv-x="500" 
d="M470 233l-440 -1v74h440v-73z" />
    <glyph glyph-name="emdash" unicode="&#x2014;" horiz-adv-x="1000" 
d="M30 232h940v74h-940v-74z" />
    <glyph glyph-name="afii00208" unicode="&#x2015;" horiz-adv-x="1000" 
d="M970 232h-940v74h940v-74z" />
    <glyph glyph-name="quoteleft" unicode="&#x2018;" horiz-adv-x="278" 
d="M225 698l-61 -234h-111l84 234h88z" />
    <glyph glyph-name="quoteright" unicode="&#x2019;" horiz-adv-x="278" 
d="M225 698l-84 -234h-88l61 234h111z" />
    <glyph glyph-name="quotedblleft" unicode="&#x201c;" horiz-adv-x="519" 
d="M440 698l-61 -234h-111l84 234h88zM250 698l-60 -234h-112l84 234h88z" />
    <glyph glyph-name="quotedblright" unicode="&#x201d;" horiz-adv-x="519" 
d="M440 698l-84 -234h-88l61 234h111zM250 698l-84 -234h-88l62 234h110z" />
    <glyph glyph-name="dagger" unicode="&#x2020;" horiz-adv-x="556" 
d="M491 446h-165v-446h-96v445h-165v79h165v174h95v-173h166v-79z" />
    <glyph glyph-name="bullet" unicode="&#x2022;" horiz-adv-x="500" 
d="M250 524q72 0 123.5 -51.5t51.5 -123.5t-51.5 -123.5t-123.5 -51.5t-123 51.5t-51 123.5t51 123.5t123 51.5z" />
    <glyph glyph-name="ellipsis" unicode="&#x2026;" horiz-adv-x="1000" 
d="M234 59q0 -26 -18 -44t-44 -18t-43.5 18t-17.5 44t17.5 43.5t43.5 17.5t44 -17.5t18 -43.5zM566 59q0 -26 -17.5 -44t-43.5 -18t-44 18t-18 44t18 43.5t44 17.5t43.5 -17.5t17.5 -43.5zM900 59q0 -26 -17.5 -44t-43.5 -18t-44 18t-18 44t18 43.5t44 17.5t43.5 -17.5
t17.5 -43.5z" />
    <glyph glyph-name="perthousand" unicode="&#x2030;" horiz-adv-x="1371" 
d="M1287 176q0 -86 -41 -136t-121 -50t-121.5 49.5t-41.5 136.5q0 86 41.5 136t121.5 50t121 -49.5t41 -136.5zM895 176q0 -86 -41 -136t-121 -50t-121.5 49.5t-41.5 136.5q0 86 41.5 136t121.5 50t121 -49.5t41 -136.5zM747 720l-422 -742h-71l423 742h70zM431 522
q0 -86 -41 -136t-121 -50t-122 49.5t-42 136.5q0 86 41.5 136t121.5 50t121.5 -49.5t41.5 -136.5zM1204 176q0 48 -18 83.5t-61 35.5t-61.5 -35t-18.5 -84q0 -48 18.5 -83.5t61.5 -35.5t61 35t18 84zM812 176q0 48 -18 83.5t-61 35.5t-61.5 -35t-18.5 -84q0 -48 18.5 -83.5
t61.5 -35.5t61 35t18 84zM347 522q0 49 -17.5 84t-60.5 35t-61.5 -35t-18.5 -84q0 -48 18 -83.5t61 -35.5t61 35t18 84z" />
    <glyph glyph-name="Euro" unicode="&#x20ac;" horiz-adv-x="639" 
d="M626 17l-10 86q-48 -30 -154 -30q-96 0 -158.5 48t-86.5 132h298l40 64h-351q-2 22 -2 31v15q0 10 1 15h312l40 64h-340q24 84 88 133.5t158 49.5q93 0 153 -34l11 91q-65 28 -163 28q-143 0 -236.5 -70.5t-120.5 -197.5h-59l-35 -64h85q-1 -5 -1 -17v-18v-26h-49
l-35 -64h93q26 -128 119.5 -196.5t238.5 -68.5q95 0 164 29z" />
    <glyph glyph-name="trademark" unicode="&#x2122;" horiz-adv-x="995" 
d="M939 283h-80v327h-2l-122 -327h-59l-122 327h-2v-327h-81v415h124l110 -290l110 290h124v-415zM387 634h-123v-351h-84v351h-124v64h331v-64z" />
    <glyph glyph-name="FL0023" unicode="&#xe000;" horiz-adv-x="290" 
d="M134 285v356l-59 -36l-10 51l78 46h41v-417h-50z" />
    <glyph glyph-name="FL0025" unicode="&#xe001;" horiz-adv-x="320" 
d="M143 279q67 0 105 38t38 89q0 38 -20 66.5t-53 39.5q57 33 57 94q0 43 -27 72t-83 29q-54 0 -103 -37l20 -47q42 34 79 34q46 0 56 -37q11 -36 -20 -65q-24 -22 -64 -22h-33v-50h31q45 0 73.5 -19t29.5 -59q0 -29 -19.5 -52t-64.5 -23q-49 0 -87 32l-21 -49
q43 -34 106 -34z" />
    <glyph glyph-name="FL0026" unicode="&#xe002;" horiz-adv-x="335" 
d="M50 322v-37h246v52h-166q35 35 77 82q82 94 82 169q0 45 -29 82t-91 37q-64 0 -110 -49l21 -40q46 38 80 38q37 0 55 -21.5t18 -56.5q0 -39 -28.5 -83t-92.5 -109z" />
    <glyph glyph-name="CR" horiz-adv-x="500" 
 />
    </font>
</defs>
</svg>
