<svg width="18" height="14" viewBox="0 0 18 14" fill="none" xmlns="http://www.w3.org/2000/svg">
<path d="M10.9311 2.15177C10.5649 1.78559 10.5649 1.20909 10.9311 0.842906C11.2973 0.489092 11.8738 0.489092 12.24 0.842906L17.7254 6.32744C17.8953 6.49734 18 6.73322 18 6.99466C18 7.2561 17.8953 7.49198 17.7254 7.6627L12.24 13.1472C11.8738 13.5134 11.2973 13.5134 10.9311 13.1472C10.5649 12.781 10.5649 12.2046 10.9311 11.8384L14.8586 7.92414L0.916288 7.92414C0.405773 7.92497 -2.58591e-07 7.506 -2.80906e-07 6.99548C-3.03222e-07 6.48497 0.405773 6.0792 0.916288 6.0792L14.8577 6.07919L10.9311 2.15177Z" fill="white"/>
</svg>
