<svg width="22" height="24" viewBox="0 0 22 24" fill="none" xmlns="http://www.w3.org/2000/svg">
<path d="M21.8435 5.45395C21.6892 3.99088 20.9761 2.67682 19.8355 1.75392L19.1792 1.22274C18.2048 0.434206 16.9775 0 15.7233 0C14.0505 0 12.4899 0.74304 11.4415 2.03872L1.35064 14.5087C0.426191 15.6508 0.00188181 17.0848 0.155978 18.5462C0.310073 20.0076 1.02413 21.3215 2.16655 22.2461L2.82284 22.7773C3.79709 23.5658 5.02426 24 6.27823 24C6.47185 24 6.66771 23.9897 6.86037 23.9692C8.3129 23.8161 9.62079 23.1103 10.5393 21.9862C10.5424 21.9826 10.5442 21.9805 17.347 13.5749C18.5586 12.0774 18.3261 9.87338 16.8289 8.66169L16.4849 8.3835C15.8662 7.88279 15.0868 7.60705 14.2905 7.60705C13.2285 7.60705 12.2376 8.07891 11.5719 8.90157L4.77692 17.2983C4.33295 17.8471 4.4181 18.6548 4.96688 19.0989C5.19397 19.2827 5.47974 19.3839 5.77148 19.3839C6.16012 19.3839 6.52313 19.2109 6.76751 18.9091L13.5623 10.5123C13.7401 10.2927 14.0048 10.1668 14.2886 10.1668C14.5042 10.1668 14.7067 10.2384 14.8742 10.374L15.2182 10.6525C15.4115 10.8089 15.5323 11.0316 15.5585 11.2798C15.5846 11.5279 15.5129 11.771 15.3565 11.9642L8.56943 20.3514C8.00902 21.0435 7.17479 21.4403 6.28061 21.4404C5.61025 21.4404 4.95428 21.2083 4.43352 20.7868L3.77723 20.2558C3.1665 19.7614 2.78473 19.0589 2.70241 18.2778C2.62003 17.4966 2.84681 16.7299 3.34103 16.1193L13.4319 3.6494C13.9923 2.95693 14.8268 2.55974 15.7214 2.55974C16.3918 2.55974 17.0478 2.79178 17.5685 3.2132L18.2247 3.74424C19.4854 4.7645 19.6811 6.62014 18.661 7.8808C18.4458 8.14671 18.3471 8.48034 18.383 8.82047C18.4189 9.16054 18.5851 9.46635 18.8508 9.68137C19.0779 9.86515 19.3637 9.96642 19.6555 9.96642C20.0441 9.96642 20.407 9.79337 20.6514 9.49154C21.5745 8.35092 21.9979 6.91696 21.8435 5.45395Z" fill="#C4C4C4"/>
</svg>
