<svg xmlns="http://www.w3.org/2000/svg" width="26.719" height="27.09" viewBox="0 0 26.719 27.09">
  <defs>
    <style>
      .cls-1 {
        fill: #002853;
        fill-rule: evenodd;
      }
    </style>
  </defs>
  <path id="ic_facebook" class="cls-1" d="M762.643,5491.2H738.875a1.486,1.486,0,0,0-1.475,1.5v24.1a1.486,1.486,0,0,0,1.475,1.5h12.8v-10.5h-3.482v-4.08h3.482v-3.02c0-3.5,2.108-5.41,5.186-5.41a27.3,27.3,0,0,1,3.111.17v3.65h-2.135c-1.674,0-2,.81-2,1.99v2.62h3.993l-0.52,4.08h-3.473v10.5h6.808a1.486,1.486,0,0,0,1.475-1.5v-24.1A1.486,1.486,0,0,0,762.643,5491.2Z" transform="translate(-737.406 -5491.19)"/>
</svg>
