<svg xmlns="http://www.w3.org/2000/svg" width="27.688" height="28.12" viewBox="0 0 27.688 28.12">
  <defs>
    <style>
      .cls-1 {
        fill: #002853;
        fill-rule: evenodd;
      }
    </style>
  </defs>
  <path id="ic_instagram" class="cls-1" d="M846.746,5493.23c3.7,0,4.138.02,5.6,0.08a7.788,7.788,0,0,1,2.573.49,4.245,4.245,0,0,1,1.593,1.05,4.378,4.378,0,0,1,1.036,1.61,7.883,7.883,0,0,1,.477,2.61c0.066,1.48.081,1.93,0.081,5.68s-0.015,4.2-.081,5.68a7.883,7.883,0,0,1-.477,2.61,4.378,4.378,0,0,1-1.036,1.61,4.245,4.245,0,0,1-1.593,1.05,7.788,7.788,0,0,1-2.573.49c-1.46.06-1.9,0.08-5.6,0.08s-4.137-.02-5.6-0.08a7.78,7.78,0,0,1-2.572-.49,4.237,4.237,0,0,1-1.593-1.05,4.38,4.38,0,0,1-1.037-1.61,7.937,7.937,0,0,1-.477-2.61c-0.066-1.48-.08-1.93-0.08-5.68s0.014-4.2.08-5.68a7.937,7.937,0,0,1,.477-2.61,4.38,4.38,0,0,1,1.037-1.61,4.237,4.237,0,0,1,1.593-1.05,7.78,7.78,0,0,1,2.572-.49c1.461-.06,1.9-0.08,5.6-0.08m0-2.53c-3.762,0-4.234.02-5.712,0.09a9.783,9.783,0,0,0-3.362.65,7.129,7.129,0,0,0-4.052,4.11,10.37,10.37,0,0,0-.644,3.41c-0.067,1.5-.083,1.97-0.083,5.79s0.016,4.29.083,5.79a10.37,10.37,0,0,0,.644,3.41,7.129,7.129,0,0,0,4.052,4.11,9.783,9.783,0,0,0,3.362.65c1.478,0.07,1.95.09,5.712,0.09s4.235-.02,5.712-0.09a9.784,9.784,0,0,0,3.363-.65,7.129,7.129,0,0,0,4.052-4.11,10.423,10.423,0,0,0,.644-3.41c0.067-1.5.083-1.98,0.083-5.79s-0.016-4.29-.083-5.79a10.423,10.423,0,0,0-.644-3.41,7.129,7.129,0,0,0-4.052-4.11,9.784,9.784,0,0,0-3.363-.65c-1.477-.07-1.949-0.09-5.712-0.09h0Zm0,6.84a7.211,7.211,0,1,0,7.115,7.21A7.158,7.158,0,0,0,846.746,5497.54Zm0,11.89a4.68,4.68,0,1,1,4.618-4.68A4.645,4.645,0,0,1,846.746,5509.43Zm9.058-12.18a1.663,1.663,0,1,1-1.663-1.69A1.679,1.679,0,0,1,855.8,5497.25Z" transform="translate(-832.906 -5490.69)"/>
</svg>
