<svg xmlns="http://www.w3.org/2000/svg" width="39.312" height="28.12" viewBox="0 0 39.312 28.12">
  <defs>
    <style>
      .cls-1 {
        fill: #002853;
        fill-rule: evenodd;
      }
    </style>
  </defs>
  <path id="ic_youTube" class="cls-1" d="M817.594,5495.59a4.971,4.971,0,0,0-3.477-3.55c-3.067-.84-15.364-0.84-15.364-0.84s-12.3,0-15.365.84a4.974,4.974,0,0,0-3.477,3.55c-0.821,3.13-.821,9.66-0.821,9.66s0,6.53.821,9.66a4.974,4.974,0,0,0,3.477,3.55c3.067,0.84,15.365.84,15.365,0.84s12.3,0,15.364-.84a4.971,4.971,0,0,0,3.477-3.55c0.822-3.13.822-9.66,0.822-9.66S818.416,5498.72,817.594,5495.59Zm-22.863,15.59v-11.86l10.278,5.93Z" transform="translate(-779.094 -5491.19)"/>
</svg>
